HIERARCHY
ROOT hip
{
  OFFSET 0 0 0
  CHANNELS 6 Xposition Yposition Zposition Zrotation Yrotation Xrotation
  JOINT abdomen
  {
    OFFSET 0 20.6881 -0.73152
    CHANNELS 3 Zrotation Xrotation Yrotation
    JOINT chest
    {
      OFFSET 0 11.7043 -0.48768
      CHANNELS 3 Zrotation Xrotation Yrotation
      JOINT neck
      {
        OFFSET 0 22.1894 -2.19456
        CHANNELS 3 Zrotation Xrotation Yrotation
        JOINT head
        {
          OFFSET -0.24384 7.07133 1.2192
          CHANNELS 3 Zrotation Xrotation Yrotation
          JOINT leftEye
          {
            OFFSET 4.14528 8.04674 8.04672
            CHANNELS 3 Zrotation Xrotation Yrotation
            End Site
            {
              OFFSET 1 0 0
            }
          }
          JOINT rightEye
          {
            OFFSET -3.6576 8.04674 8.04672
            CHANNELS 3 Zrotation Xrotation Yrotation
            End Site
            {
              OFFSET 1 0 0
            }
          }
        }
      }
      JOINT rCollar
      {
        OFFSET -2.68224 19.2634 -4.8768
        CHANNELS 3 Zrotation Xrotation Yrotation
        JOINT rShldr
        {
          OFFSET -8.77824 -1.95073 1.46304
          CHANNELS 3 Zrotation Xrotation Yrotation
          JOINT rForeArm
          {
            OFFSET -28.1742 -1.7115 0.48768
            CHANNELS 3 Zrotation Xrotation Yrotation
            JOINT rHand
            {
              OFFSET -22.5879 0.773209 7.07136
              CHANNELS 3 Zrotation Xrotation Yrotation
              JOINT rThumb1
              {
                OFFSET -1.2192 -0.487915 3.41376
                CHANNELS 3 Zrotation Xrotation Yrotation
                JOINT rThumb2
                {
                  OFFSET -3.37035 -0.52449 3.41376
                  CHANNELS 3 Zrotation Xrotation Yrotation
                  End Site
                  {
                    OFFSET -1.78271 -1.18214 1.43049
                  }
                }
              }
              JOINT rIndex1
              {
                OFFSET -7.75947 0.938293 5.60832
                CHANNELS 3 Zrotation Xrotation Yrotation
                JOINT rIndex2
                {
                  OFFSET -2.54057 -0.884171 1.56538
                  CHANNELS 3 Zrotation Xrotation Yrotation
                  End Site
                  {
                    OFFSET -1.62519 -0.234802 1.16502
                  }
                }
              }
              JOINT rMid1
              {
                OFFSET -8.24714 1.18213 3.41376
                CHANNELS 3 Zrotation Xrotation Yrotation
                JOINT rMid2
                {
                  OFFSET -3.10165 -0.590103 1.0647
                  CHANNELS 3 Zrotation Xrotation Yrotation
                  End Site
                  {
                    OFFSET -2.48547 -0.328903 0.83742
                  }
                }
              }
              JOINT rRing1
              {
                OFFSET -8.82822 0.546677 1.51678
                CHANNELS 3 Zrotation Xrotation Yrotation
                JOINT rRing2
                {
                  OFFSET -2.60934 -0.819778 -0.0198488
                  CHANNELS 3 Zrotation Xrotation Yrotation
                  End Site
                  {
                    OFFSET -2.33842 -0.294052 0.168128
                  }
                }
              }
              JOINT rPinky1
              {
                OFFSET -8.27202 -0.0477905 -0.4584
                CHANNELS 3 Zrotation Xrotation Yrotation
                JOINT rPinky2
                {
                  OFFSET -1.82734 -0.647385 -0.700984
                  CHANNELS 3 Zrotation Xrotation Yrotation
                  End Site
                  {
                    OFFSET -1.69225 -0.51767 -0.607171
                  }
                }
              }
            }
          }
        }
      }
      JOINT lCollar
      {
        OFFSET 2.68224 19.2634 -4.8768
        CHANNELS 3 Zrotation Xrotation Yrotation
        JOINT lShldr
        {
          OFFSET 8.77824 -1.95073 1.46304
          CHANNELS 3 Zrotation Xrotation Yrotation
          JOINT lForeArm
          {
            OFFSET 28.1742 -1.7115 0.48768
            CHANNELS 3 Zrotation Xrotation Yrotation
            JOINT lHand
            {
              OFFSET 22.5879 0.773209 7.07136
              CHANNELS 3 Zrotation Xrotation Yrotation
              JOINT lThumb1
              {
                OFFSET 1.2192 -0.487915 3.41376
                CHANNELS 3 Zrotation Xrotation Yrotation
                JOINT lThumb2
                {
                  OFFSET 3.37035 -0.52449 3.41376
                  CHANNELS 3 Zrotation Xrotation Yrotation
                  End Site
                  {
                    OFFSET 1.78271 -1.18214 1.43049
                  }
                }
              }
              JOINT lIndex1
              {
                OFFSET 7.75947 0.938293 5.60832
                CHANNELS 3 Zrotation Xrotation Yrotation
                JOINT lIndex2
                {
                  OFFSET 2.54057 -0.884171 1.56538
                  CHANNELS 3 Zrotation Xrotation Yrotation
                  End Site
                  {
                    OFFSET 1.62519 -0.234802 1.16502
                  }
                }
              }
              JOINT lMid1
              {
                OFFSET 8.24714 1.18213 3.41376
                CHANNELS 3 Zrotation Xrotation Yrotation
                JOINT lMid2
                {
                  OFFSET 3.10165 -0.590103 1.0647
                  CHANNELS 3 Zrotation Xrotation Yrotation
                  End Site
                  {
                    OFFSET 2.48547 -0.328903 0.83742
                  }
                }
              }
              JOINT lRing1
              {
                OFFSET 8.82822 0.546677 1.51678
                CHANNELS 3 Zrotation Xrotation Yrotation
                JOINT lRing2
                {
                  OFFSET 2.60934 -0.819778 -0.0198488
                  CHANNELS 3 Zrotation Xrotation Yrotation
                  End Site
                  {
                    OFFSET 2.33842 -0.294052 0.168128
                  }
                }
              }
              JOINT lPinky1
              {
                OFFSET 8.27202 -0.0477905 -0.4584
                CHANNELS 3 Zrotation Xrotation Yrotation
                JOINT lPinky2
                {
                  OFFSET 1.82734 -0.647385 -0.700984
                  CHANNELS 3 Zrotation Xrotation Yrotation
                  End Site
                  {
                    OFFSET 1.69225 -0.51767 -0.607171
                  }
                }
              }
            }
          }
        }
      }
    }
  }
  JOINT rButtock
  {
    OFFSET -8.77824 4.35084 1.2192
    CHANNELS 3 Zrotation Xrotation Yrotation
    JOINT rThigh
    {
      OFFSET 0 -1.70687 -2.19456
      CHANNELS 3 Zrotation Xrotation Yrotation
      JOINT rShin
      {
        OFFSET 0 -36.8199 0.73152
        CHANNELS 3 Zrotation Xrotation Yrotation
        JOINT rFoot
        {
          OFFSET 0.73152 -45.1104 -5.12064
          CHANNELS 3 Zrotation Xrotation Yrotation
          End Site
          {
            OFFSET -1.1221 -3.69964 12.103
          }
        }
      }
    }
  }
  JOINT lButtock
  {
    OFFSET 8.77824 4.35084 1.2192
    CHANNELS 3 Zrotation Xrotation Yrotation
    JOINT lThigh
    {
      OFFSET 0 -1.70687 -2.19456
      CHANNELS 3 Zrotation Xrotation Yrotation
      JOINT lShin
      {
        OFFSET 0 -36.8199 0.73152
        CHANNELS 3 Zrotation Xrotation Yrotation
        JOINT lFoot
        {
          OFFSET -0.73152 -45.1104 -5.12064
          CHANNELS 3 Zrotation Xrotation Yrotation
          End Site
          {
            OFFSET 1.1221 -3.69964 12.103
          }
        }
      }
    }
  }
}
MOTION
Frames:	9
Frame Time:	0.00833333
52.3671 38.8444 31.8941 0.0 0.0 0.0 0.0404797 0.000270375 0.00114427 0.0111564 0.000489888 0.00193255 1.0666e-15 7.95139e-16 -7.76503e-18 3.19919e-15 9.54166e-15 -2.64011e-17 -0.0 0.0 0.0 -0.0 0.0 0.0 6.44728e-16 -3.10601e-18 1.49089e-16 1.27033e-14 -3.54085e-16 7.95139e-16 1.95107e-13 -6.0033e-14 1.90833e-14 2.21097e-12 4.42544e-14 -4.13472e-14 5.2163e-12 -2.90589e-14 -2.8625e-14 8.99898e-12 -5.08889e-14 -5.725e-14 5.21929e-12 -2.98177e-14 -3.49861e-14 7.73091 5.47488 0.417314 5.21666e-12 -2.93207e-14 -2.8625e-14 2.90554 0.965183 0.102902 5.22455e-12 -2.9122e-14 -3.02153e-14 10.2786 0.731801 0.0259123 5.20498e-12 -2.50469e-14 -2.22639e-14 2.22167 -0.733487 -0.20892 4.48624e-16 -3.10601e-18 -1.49089e-16 9.56554e-15 -4.53478e-16 -7.95139e-16 1.91678e-13 5.54609e-14 -2.22639e-14 2.21103e-12 -7.01958e-14 1.90833e-14 5.21485e-12 -2.70805e-14 -2.8625e-14 9.01409e-12 -4.45278e-14 -5.00937e-14 5.20935e-12 -2.42517e-14 -1.90833e-14 -7.73091 5.47488 -0.417314 5.21462e-12 -2.73329e-14 -3.49861e-14 -2.90554 0.965183 -0.102902 5.20916e-12 -2.68359e-14 -2.8625e-14 -10.2786 0.731801 -0.0259123 5.2175e-12 -2.70347e-14 -3.81667e-14 -2.22167 -0.733487 0.20892 -2.03217e-16 0.0 -3.88251e-19 0.554683 -3.16495 -0.0436862 -0.00574552 0.179596 -0.0505604 -0.523923 2.98421 0.121174 2.03217e-16 0.0 3.88251e-19 -0.492992 -3.01454 0.0399643 0.00619299 -0.092873 0.0545601 0.523414 3.10627 -0.12362
31.0104 46.4642 27.8553 108.087 -85.4412 -132.926 0.3488 14.6466 0.908653 -0.799708 -0.253242 -0.0893324 0.267248 0.220841 0.941237 -0.691291 -7.04902 1.62368 -0.0 0.0 0.0 -0.0 0.0 0.0 1.38881e-14 4.54271e-13 4.59301e-16 19.813 10.3184 9.64439 -10.2467 -7.11002 12.4622 0.0636692 5.60334 0.77397 -1.09441e-09 5.14011e-10 -9.83731e-11 -1.89327e-09 8.93775e-10 -1.51238e-10 -1.0944e-09 5.14009e-10 -9.83813e-11 7.73091 5.47488 0.417314 -1.0944e-09 5.14011e-10 -9.83739e-11 2.90554 0.965183 0.102902 -1.09439e-09 5.14009e-10 -9.83769e-11 10.2786 0.731801 0.0259123 -1.09441e-09 5.14014e-10 -9.83692e-11 2.22167 -0.733487 -0.20892 1.37392e-14 4.54271e-13 2.17809e-16 -16.847 15.1937 -11.671 9.71471 -6.57349 -12.1116 -0.0884469 6.60556 -0.906224 8.22055e-10 7.14763e-10 3.01947e-10 1.42705e-09 1.24283e-09 5.05257e-10 8.2205e-10 7.14763e-10 3.01959e-10 -7.73091 5.47488 -0.417314 8.22054e-10 7.14762e-10 3.01944e-10 -2.90554 0.965183 -0.102902 8.22048e-10 7.14762e-10 3.01949e-10 -10.2786 0.731801 -0.0259123 8.22057e-10 7.14762e-10 3.01941e-10 -2.22167 -0.733487 0.20892 -2.03217e-16 0.0 -3.88251e-19 -4.60271 -13.6062 -1.6904 0.492583 17.7843 0.385856 0.494274 3.58863 -1.5924 2.03217e-16 0.0 3.88251e-19 3.04663 -13.0198 1.61513 -0.412131 16.077 -0.387185 -0.392938 4.33387 1.09538
31.0241 46.466 27.8108 111.694 -85.519 -136.497 0.102534 30.1196 2.08804 -1.65805 -0.521907 -0.185761 0.53197 0.463492 1.93603 -0.968346 -14.509 3.42674 -0.0 0.0 0.0 -0.0 0.0 0.0 2.93152e-14 9.84245e-13 8.60365e-16 36.8335 20.2289 20.8563 -17.7519 -13.4995 26.2165 -0.0368027 11.5372 1.61909 -2.34732e-09 1.0986e-09 -2.09221e-10 -4.06068e-09 1.91026e-09 -3.21446e-10 -2.34731e-09 1.0986e-09 -2.09231e-10 7.73091 5.47488 0.417314 -2.34731e-09 1.0986e-09 -2.09223e-10 2.90554 0.965183 0.102902 -2.3473e-09 1.0986e-09 -2.09227e-10 10.2786 0.731801 0.0259123 -2.34732e-09 1.0986e-09 -2.0922e-10 2.22167 -0.733487 -0.20892 2.92164e-14 9.84244e-13 6.80216e-16 -27.2975 29.0598 -26.7345 16.9972 -12.537 -25.3967 0.0511166 13.5742 -1.90392 1.74898e-09 1.52635e-09 6.42516e-10 3.03617e-09 2.65396e-09 1.07502e-09 1.74898e-09 1.52634e-09 6.4253e-10 -7.73091 5.47488 -0.417314 1.74898e-09 1.52634e-09 6.42517e-10 -2.90554 0.965183 -0.102902 1.74898e-09 1.52634e-09 6.4252e-10 -10.2786 0.731801 -0.0259123 1.74899e-09 1.52634e-09 6.42514e-10 -2.22167 -0.733487 0.20892 -2.03217e-16 0.0 -3.88251e-19 -10.7714 -24.6141 -3.6656 0.665501 36.393 1.00535 1.61064 4.22063 -3.41167 2.03217e-16 0.0 3.88251e-19 7.43509 -23.5695 3.48622 -0.53709 33.1684 -0.983114 -1.41886 5.62925 2.38868
31.033 46.4533 27.7976 111.82 -85.5222 -136.554 -0.882419 43.8862 3.65738 -2.42386 -0.760699 -0.271884 0.779986 0.661809 2.82388 -0.803931 -21.0766 5.18173 -0.0 0.0 0.0 -0.0 0.0 0.0 4.0375e-14 1.36282e-12 1.07973e-15 48.4565 27.2517 32.4158 -21.852 -17.261 39.1667 -0.280225 16.7975 2.41387 -3.29365e-09 1.54209e-09 -2.95062e-10 -5.69779e-09 2.68143e-09 -4.53599e-10 -3.29364e-09 1.54209e-09 -2.95074e-10 7.73091 5.47488 0.417314 -3.29365e-09 1.54209e-09 -2.95065e-10 2.90554 0.965183 0.102902 -3.29363e-09 1.54209e-09 -2.9507e-10 10.2786 0.731801 0.0259123 -3.29365e-09 1.54209e-09 -2.95063e-10 2.22167 -0.733487 -0.20892 4.03203e-14 1.36282e-12 9.51604e-16 -29.4779 37.0809 -44.1713 21.1588 -16.1747 -37.8332 0.394745 19.7962 -2.87038 2.45573e-09 2.14434e-09 9.05898e-10 4.26313e-09 3.72857e-09 1.51587e-09 2.45573e-09 2.14434e-09 9.05914e-10 -7.73091 5.47488 -0.417314 2.45573e-09 2.14434e-09 9.05903e-10 -2.90554 0.965183 -0.102902 2.45573e-09 2.14434e-09 9.05904e-10 -10.2786 0.731801 -0.0259123 2.45574e-09 2.14434e-09 9.05899e-10 -2.22167 -0.733487 0.20892 -2.03217e-16 0.0 -3.88251e-19 -17.0496 -34.3655 -5.86866 0.24702 52.9782 1.99882 2.63924 4.7832 -5.02739 2.03217e-16 0.0 3.88251e-19 12.0512 -32.9231 5.53145 -0.189753 48.4031 -1.84575 -2.38324 6.77852 3.54847
31.0413 46.4773 27.7804 110.902 -85.6893 -135.537 -2.3602 53.4325 5.40926 -2.95666 -0.924816 -0.332221 1.00306 0.750043 3.4442 -0.470156 -25.4811 6.51457 -0.0 0.0 0.0 -0.0 0.0 0.0 4.05163e-14 1.36289e-12 8.44835e-16 54.6817 30.6214 41.4127 -23.6089 -18.3841 48.3952 -0.538413 20.3861 2.9938 -3.47354e-09 1.63284e-09 -3.18386e-10 -6.00917e-09 2.8393e-09 -4.90616e-10 -3.47352e-09 1.63283e-09 -3.18399e-10 7.73091 5.47488 0.417314 -3.47354e-09 1.63284e-09 -3.18389e-10 2.90554 0.965183 0.102902 -3.47352e-09 1.63283e-09 -3.18396e-10 10.2786 0.731801 0.0259123 -3.47354e-09 1.63284e-09 -3.18389e-10 2.22167 -0.733487 -0.20892 4.04911e-14 1.36289e-12 7.45443e-16 -27.8407 38.9485 -57.8631 23.0433 -17.4089 -46.7116 0.774585 24.1711 -3.61642 2.61203e-09 2.27837e-09 9.76313e-10 4.53473e-09 3.96186e-09 1.63445e-09 2.61203e-09 2.27836e-09 9.76328e-10 -7.73091 5.47488 -0.417314 2.61203e-09 2.27837e-09 9.76319e-10 -2.90554 0.965183 -0.102902 2.61202e-09 2.27837e-09 9.76319e-10 -10.2786 0.731801 -0.0259123 2.61204e-09 2.27837e-09 9.76316e-10 -2.22167 -0.733487 0.20892 -2.03217e-16 0.0 -3.88251e-19 -22.007 -41.0885 -7.84116 -0.855445 64.5156 3.43709 3.372 5.18393 -6.1282 2.03217e-16 0.0 3.88251e-19 15.7978 -39.3846 7.31547 0.594137 59.0072 -2.92598 -3.08223 7.57163 4.36215
31.0492 46.5076 27.7691 110.942 -85.8985 -135.551 -3.2959 57.1334 6.37181 -3.15273 -0.985406 -0.362372 1.21065 0.675268 3.69907 -0.384407 -26.9078 7.03839 -0.0 0.0 0.0 -0.0 0.0 0.0 1.78956e-14 6.14002e-13 1.33558e-15 56.7644 31.5687 45.1321 -24.1255 -18.4269 51.9545 -0.648752 21.6036 3.20043 -2.37272e-09 1.13943e-09 -2.40551e-10 -4.10538e-09 1.98157e-09 -3.74277e-10 -2.37271e-09 1.13942e-09 -2.40563e-10 7.73091 5.47488 0.417314 -2.37272e-09 1.13942e-09 -2.40554e-10 2.90554 0.965183 0.102902 -2.37271e-09 1.13942e-09 -2.40561e-10 10.2786 0.731801 0.0259123 -2.37272e-09 1.13943e-09 -2.40555e-10 2.22167 -0.733487 -0.20892 1.78783e-14 6.14002e-13 1.22882e-15 -26.843 38.6766 -63.0997 23.6205 -17.5555 -50.1805 0.967358 25.9975 -3.94817 1.89583e-09 1.64955e-09 7.47092e-10 3.29206e-09 2.86909e-09 1.253e-09 1.89583e-09 1.64955e-09 7.47106e-10 -7.73091 5.47488 -0.417314 1.89583e-09 1.64955e-09 7.47099e-10 -2.90554 0.965183 -0.102902 1.89582e-09 1.64955e-09 7.47099e-10 -10.2786 0.731801 -0.0259123 1.89583e-09 1.64955e-09 7.47097e-10 -2.22167 -0.733487 0.20892 -2.03217e-16 0.0 -3.88251e-19 -24.0822 -43.663 -8.76235 -1.73117 69.0048 4.42999 3.6572 5.36813 -6.50602 2.03217e-16 0.0 3.88251e-19 17.433 -41.8763 8.12073 1.14948 63.144 -3.58268 -3.35977 7.86907 4.68545
31.0501 46.5221 27.7821 110.828 -85.8319 -135.494 -3.28963 56.6849 6.26399 -3.10857 -0.972001 -0.370677 1.40752 0.484604 3.6925 -0.590493 -26.2225 6.91805 -0.0 0.0 0.0 -0.0 0.0 0.0 -2.06278e-14 -6.59435e-13 2.27981e-15 56.5539 31.5659 44.7916 -24.0492 -18.3936 51.4831 -0.614891 21.1317 3.12218 -3.67009e-10 2.33062e-10 -9.1108e-11 -6.36444e-10 4.05879e-10 -1.49358e-10 -3.66996e-10 2.33056e-10 -9.11179e-11 7.73091 5.47488 0.417314 -3.67008e-10 2.3306e-10 -9.11116e-11 2.90554 0.965183 0.102902 -3.66998e-10 2.33057e-10 -9.11172e-11 10.2786 0.731801 0.0259123 -3.67006e-10 2.33062e-10 -9.11131e-11 2.22167 -0.733487 -0.20892 -2.06525e-14 -6.59435e-13 2.14004e-15 -26.7934 38.6037 -62.4486 23.5555 -17.5417 -49.782 0.961829 26.0072 -3.94801 5.61261e-10 4.79915e-10 3.05251e-10 9.76184e-10 8.36201e-10 5.16715e-10 5.61262e-10 4.79913e-10 3.05262e-10 -7.73091 5.47488 -0.417314 5.61262e-10 4.79915e-10 3.05258e-10 -2.90554 0.965183 -0.102902 5.61251e-10 4.79915e-10 3.05257e-10 -10.2786 0.731801 -0.0259123 5.61264e-10 4.79917e-10 3.05257e-10 -2.22167 -0.733487 0.20892 -2.03217e-16 0.0 -3.88251e-19 -23.7718 -43.3102 -8.6719 -1.60825 68.4751 4.29397 3.61466 5.39926 -6.36653 2.03217e-16 0.0 3.88251e-19 17.284 -41.5621 8.01204 1.08428 62.6705 -3.50414 -3.32476 7.81418 4.65654
31.0489 46.5133 27.7828 111.506 -85.7381 -136.187 -2.89154 54.5634 5.75395 -2.9839 -0.927377 -0.360756 1.57952 0.262556 3.56665 -0.886028 -24.693 6.52727 -0.0 0.0 0.0 -0.0 0.0 0.0 -5.355e-14 -1.79218e-12 1.22687e-15 55.4944 31.14 42.7795 -23.7273 -18.3132 49.3883 -0.531463 20.0475 2.94247 1.66837e-09 -6.93986e-10 6.51601e-11 2.88396e-09 -1.20581e-09 8.67279e-11 1.66838e-09 -6.93992e-10 6.51523e-11 7.73091 5.47488 0.417314 1.66837e-09 -6.93989e-10 6.51566e-11 2.90554 0.965183 0.102902 1.66838e-09 -6.9399e-10 6.51517e-11 10.2786 0.731801 0.0259123 1.66837e-09 -6.93986e-10 6.51544e-11 2.22167 -0.733487 -0.20892 -5.35869e-14 -1.79218e-12 1.04944e-15 -27.0843 38.6269 -59.5031 23.23 -17.4564 -47.8278 0.871342 25.2537 -3.80703 -8.57662e-10 -7.69601e-10 -1.74472e-10 -1.48617e-09 -1.33559e-09 -2.83346e-10 -8.57659e-10 -7.69602e-10 -1.74464e-10 -7.73091 5.47488 -0.417314 -8.5766e-10 -7.69599e-10 -1.74465e-10 -2.90554 0.965183 -0.102902 -8.57671e-10 -7.69599e-10 -1.74466e-10 -10.2786 0.731801 -0.0259123 -8.57658e-10 -7.69597e-10 -1.74465e-10 -2.22167 -0.733487 0.20892 -2.03217e-16 0.0 -3.88251e-19 -22.5234 -41.799 -8.19374 -1.09738 65.9414 3.71798 3.44012 5.36386 -6.01831 2.03217e-16 0.0 3.88251e-19 16.4253 -40.1338 7.54736 0.772319 60.3544 -3.13322 -3.16522 7.62264 4.48477
31.0522 46.5146 27.7906 112.054 -85.7296 -136.734 -2.67666 53.2441 5.5328 -2.93846 -0.894312 -0.336233 1.71413 0.0937282 3.4636 -1.08045 -23.5879 6.23031 -0.0 0.0 0.0 -0.0 0.0 0.0 -5.93671e-14 -2.11899e-12 -4.27387e-15 54.9771 30.7609 41.5118 -23.5032 -18.197 48.0744 -0.486496 19.4283 2.84133 2.85818e-09 -1.24945e-09 1.63471e-10 4.94215e-09 -2.17156e-09 2.36567e-10 2.85819e-09 -1.24945e-09 1.63465e-10 7.73091 5.47488 0.417314 2.85818e-09 -1.24945e-09 1.63468e-10 2.90554 0.965183 0.102902 2.85818e-09 -1.24945e-09 1.63463e-10 10.2786 0.731801 0.0259123 2.85818e-09 -1.24945e-09 1.63465e-10 2.22167 -0.733487 -0.20892 -5.94106e-14 -2.11899e-12 -4.47265e-15 -27.1329 38.5966 -57.8095 23.0149 -17.3613 -46.6287 0.818194 24.7901 -3.72165 -1.82693e-09 -1.63805e-09 -5.17336e-10 -3.16828e-09 -2.84507e-09 -8.56109e-10 -1.82693e-09 -1.63805e-09 -5.1733e-10 -7.73091 5.47488 -0.417314 -1.82693e-09 -1.63805e-09 -5.1733e-10 -2.90554 0.965183 -0.102902 -1.82694e-09 -1.63805e-09 -5.17331e-10 -10.2786 0.731801 -0.0259123 -1.82692e-09 -1.63804e-09 -5.1733e-10 -2.22167 -0.733487 0.20892 -2.03217e-16 0.0 -3.88251e-19 -21.7982 -40.8961 -7.96163 -0.84697 64.4177 3.42751 3.33015 5.34849 -5.77006 2.03217e-16 0.0 3.88251e-19 15.94 -39.2823 7.29162 0.611959 58.9624 -2.93599 -3.06943 7.51007 4.37958
